<svg xmlns="http://www.w3.org/2000/svg" viewBox="0 0 1200 680" role="img"><style>
text{font-family:"Noto Sans CJK KR","DejaVu Sans",Arial,sans-serif;fill:#172033}.title{font-size:27px;font-weight:800}.sub{font-size:15px;fill:#667085}.h{font-size:18px;font-weight:750}.t{font-size:15px}.s{font-size:13px;fill:#667085}.xs{font-size:12px;fill:#7b8493}
.box{fill:#fff;stroke:#9aa7b8;stroke-width:1.6}.blue{fill:#eaf2ff;stroke:#2563eb;stroke-width:2}.orange{fill:#fff4e8;stroke:#b45309;stroke-width:2}.green{fill:#eafaf5;stroke:#0f766e;stroke-width:2}.purple{fill:#f4efff;stroke:#7c3aed;stroke-width:2}.red{fill:#fff0f0;stroke:#c2410c;stroke-width:2}.gray{fill:#f5f7fa;stroke:#98a2b3;stroke-width:1.5}.thin{stroke:#667085;stroke-width:1.5;fill:none}.dash{stroke:#98a2b3;stroke-width:1.5;stroke-dasharray:7 6;fill:none}
</style><defs>
<marker id="ab" markerWidth="10" markerHeight="10" refX="8" refY="3" orient="auto"><path d="M0,0 L0,6 L9,3 z" fill="#2563eb"/></marker>
<marker id="ao" markerWidth="10" markerHeight="10" refX="8" refY="3" orient="auto"><path d="M0,0 L0,6 L9,3 z" fill="#b45309"/></marker>
<marker id="ag" markerWidth="10" markerHeight="10" refX="8" refY="3" orient="auto"><path d="M0,0 L0,6 L9,3 z" fill="#0f766e"/></marker>
<marker id="ar" markerWidth="10" markerHeight="10" refX="8" refY="3" orient="auto"><path d="M0,0 L0,6 L9,3 z" fill="#c2410c"/></marker>
</defs><rect width="1200" height="680" fill="#fff"/><text x="48" y="48" class="title">W37-4 Evidence map - two positive-charge populations behind dynamic DIBL</text><text x="48" y="78" class="sub">Source-constrained GaN MIS-HEMT redraw; spatial populations are separated conceptually, not copied from the IEEE figure</text>
<rect x="55" y="120" width="1090" height="430" rx="16" class="gray"/><text x="80" y="154" class="h">High-drain OFF-state stress</text>
<rect x="110" y="390" width="980" height="82" class="blue"/><text x="600" y="438" text-anchor="middle" class="h">GaN channel / buffer</text>
<rect x="110" y="330" width="980" height="58" class="green"/><text x="600" y="365" text-anchor="middle" class="t">AlGaN barrier / 2DEG region</text>
<rect x="390" y="225" width="360" height="98" class="box"/><text x="570" y="262" text-anchor="middle" class="h">MIS gate stack</text><text x="570" y="290" text-anchor="middle" class="s">dielectric / interface defect system</text>
<text x="115" y="300" class="h">Source</text><text x="925" y="300" class="h">Drain: high VDS</text>
<g fill="#b45309"><circle cx="650" cy="275" r="9"/><circle cx="682" cy="275" r="9"/><circle cx="713" cy="275" r="9"/></g><text x="755" y="280" class="s">Population 1: trapped holes in/near MIS defects</text>
<g><circle cx="760" cy="350" r="12" fill="#fff" stroke="#b45309" stroke-width="3"/><text x="760" y="355" text-anchor="middle" class="t">+</text><circle cx="800" cy="350" r="12" fill="#fff" stroke="#b45309" stroke-width="3"/><text x="800" y="355" text-anchor="middle" class="t">+</text></g><text x="835" y="355" class="s">Population 2: free holes accumulated near gate region</text>
<path d="M975 325 C900 315 865 325 815 348" stroke="#b45309" stroke-width="4" fill="none" marker-end="url(#ao)"/>
<rect x="125" y="500" width="940" height="84" rx="12" class="purple"/><text x="150" y="530" class="t">Reported conclusion</text><text x="150" y="557" class="s">Both trapped-hole electrostatics and free-hole accumulation contribute to the strong negative VTH shift / abnormal dynamic DIBL.</text></svg>