<svg xmlns="http://www.w3.org/2000/svg" viewBox="0 0 1200 680" role="img"><style>
text{font-family:"Noto Sans CJK KR","DejaVu Sans",Arial,sans-serif;fill:#172033}.title{font-size:27px;font-weight:800}.sub{font-size:15px;fill:#667085}.h{font-size:18px;font-weight:750}.t{font-size:15px}.s{font-size:13px;fill:#667085}.xs{font-size:12px;fill:#7b8493}
.box{fill:#fff;stroke:#9aa7b8;stroke-width:1.6}.blue{fill:#eaf2ff;stroke:#2563eb;stroke-width:2}.orange{fill:#fff4e8;stroke:#b45309;stroke-width:2}.green{fill:#eafaf5;stroke:#0f766e;stroke-width:2}.purple{fill:#f4efff;stroke:#7c3aed;stroke-width:2}.red{fill:#fff0f0;stroke:#c2410c;stroke-width:2}.gray{fill:#f5f7fa;stroke:#98a2b3;stroke-width:1.5}.thin{stroke:#667085;stroke-width:1.5;fill:none}.dash{stroke:#98a2b3;stroke-width:1.5;stroke-dasharray:7 6;fill:none}
</style><defs>
<marker id="ab" markerWidth="10" markerHeight="10" refX="8" refY="3" orient="auto"><path d="M0,0 L0,6 L9,3 z" fill="#2563eb"/></marker>
<marker id="ao" markerWidth="10" markerHeight="10" refX="8" refY="3" orient="auto"><path d="M0,0 L0,6 L9,3 z" fill="#b45309"/></marker>
<marker id="ag" markerWidth="10" markerHeight="10" refX="8" refY="3" orient="auto"><path d="M0,0 L0,6 L9,3 z" fill="#0f766e"/></marker>
<marker id="ar" markerWidth="10" markerHeight="10" refX="8" refY="3" orient="auto"><path d="M0,0 L0,6 L9,3 z" fill="#c2410c"/></marker>
</defs><rect width="1200" height="680" fill="#fff"/><text x="48" y="48" class="title">W37-5 Evidence map - four source-reported temperature trend classes under dynamic gate stress</text><text x="48" y="78" class="sub">Qualitative classes only: no source numeric y-values are reconstructed</text>
<rect x="55" y="120" width="1090" height="450" rx="16" class="gray"/><text x="80" y="154" class="h">Planar SiC MOSFETs stressed at 25 / 75 / 125 / 175°C</text>
<g transform="translate(95,190)"><rect width="235" height="290" rx="12" class="box"/><text x="20" y="35" class="h">DUT-A</text><text x="20" y="62" class="s">weak T correlation</text><line x1="35" y1="235" x2="200" y2="235" class="thin"/><line x1="35" y1="235" x2="35" y2="105" class="thin"/><path d="M45 175 C90 170 135 172 190 168" stroke="#2563eb" stroke-width="5" fill="none"/></g>
<g transform="translate(350,190)"><rect width="235" height="290" rx="12" class="box"/><text x="20" y="35" class="h">DUT-B</text><text x="20" y="62" class="s">positive T correlation</text><line x1="35" y1="235" x2="200" y2="235" class="thin"/><line x1="35" y1="235" x2="35" y2="105" class="thin"/><path d="M45 205 C90 190 140 155 190 120" stroke="#b45309" stroke-width="5" fill="none"/></g>
<g transform="translate(605,190)"><rect width="235" height="290" rx="12" class="box"/><text x="20" y="35" class="h">DUT-C</text><text x="20" y="62" class="s">negative → positive crossover</text><line x1="35" y1="235" x2="200" y2="235" class="thin"/><line x1="35" y1="235" x2="35" y2="105" class="thin"/><line x1="35" y1="175" x2="200" y2="175" class="dash"/><path d="M45 210 C90 205 115 195 130 175 C150 145 168 130 190 118" stroke="#7c3aed" stroke-width="5" fill="none"/></g>
<g transform="translate(860,190)"><rect width="235" height="290" rx="12" class="box"/><text x="20" y="35" class="h">DUT-D</text><text x="20" y="62" class="s">more negative with T</text><line x1="35" y1="235" x2="200" y2="235" class="thin"/><line x1="35" y1="235" x2="35" y2="105" class="thin"/><path d="M45 135 C95 155 140 190 190 215" stroke="#0f766e" stroke-width="5" fill="none"/></g>
<text x="80" y="525" class="s">Source characterization also considers VTH drift, subthreshold swing, subthreshold hysteresis and Ciss–VGS to resolve trap/interface differences.</text>
<rect x="55" y="590" width="1090" height="55" rx="10" class="purple"/><text x="80" y="622" class="t">Evidence meaning: a single universal activation energy cannot explain all four commercial/device trap landscapes.</text></svg>